#!OML:ASF Y:\EmotionMaleHayes\Project 1\Capture day 1\Session 1\Male1.ASF
:FULLY-SPECIFIED
:DEGREES
957
root 8.51138 16.8366 0.783497 357.745 -3.48554 371.719
lowerback 5.01968 0.524466 -15.8869
upperback 7.09456 0.526008 -3.8683
thorax 4.73936 -0.406185 4.72133
lowerneck -19.9031 2.29137 3.4513
upperneck 23.8541 1.69776 1.41992
head 11.0466 1.26408 0.196222
rclavicle -3.97569e-015 -3.97569e-016
rhumerus -38.2815 2.59866 -85.5649
rradius 32.1638
rwrist 0.260338
rhand -5.89062 -31.5295
rfingers 7.12502
rthumb 19.9375 -60.5267
lclavicle -3.97569e-015 -3.97569e-016
lhumerus -5.54769 -25.2514 86.7969
lradius 40.4035
lwrist 8.20839
lhand -20.5937 -26.5086
lfingers 7.12502
lthumb 5.76664 3.39288
rfemur -26.1848 -4.91851 5.22387
rtibia 29.9707
rfoot -9.08745 -5.15277
rtoes 22.1368
lfemur 12.1697 1.91128 -35.1736
ltibia 10.0307
lfoot -18.058 2.53361
ltoes -18.0208
958
root 8.50597 16.8146 0.90925 358.081 -3.4167 371.696
lowerback 4.66322 0.41334 -15.9102
upperback 7.01943 0.439358 -3.72469
thorax 4.87699 -0.460141 4.88936
lowerneck -19.9982 2.23838 3.21541
upperneck 23.8003 1.66761 1.52427
head 11.0401 1.24172 0.269353
rclavicle -6.65929e-015 -3.89618e-014
rhumerus -38.0402 2.28359 -85.3817
rradius 32.2295
rwrist 0.301098
rhand -5.8585 -31.2205
rfingers 7.12502
rthumb 19.9684 -60.2146
lclavicle -6.65929e-015 -3.89618e-014
lhumerus -5.8079 -25.2705 87.0048
lradius 40.8993
lwrist 8.16188
lhand -20.8968 -26.7682
lfingers 7.12502
lthumb 5.47401 3.14112
rfemur -26.3041 -4.49331 5.1582
rtibia 27.035
rfoot -7.97989 -5.37581
rtoes 22.5036
lfemur 12.3415 2.48542 -34.8273
ltibia 9.97436
lfoot -18.216 1.69499
ltoes -17.5384
959
root 8.49954 16.791 1.03873 358.366 -3.35375 371.679
lowerback 4.33709 0.344339 -15.9907
upperback 6.96375 0.40234 -3.54527
thorax 5.01127 -0.494325 5.12572
lowerneck -20.1174 2.18953 2.96527
upperneck 23.704 1.64511 1.64055
head 11.0223 1.22285 0.350212
rclavicle 2.24627e-014 -9.54166e-015
rhumerus -37.7842 1.85461 -85.1814
rradius 32.3243
rwrist 0.627657
rhand -5.88552 -31.055
rfingers 7.12502
rthumb 19.9424 -60.0518
lclavicle 2.24627e-014 -9.54166e-015
lhumerus -6.06783 -25.388 87.1904
lradius 41.4054
lwrist 8.27831
lhand -20.6894 -27.1169
lfingers 7.12502
lthumb 5.67422 2.78711
rfemur -26.291 -3.74842 5.03671
rtibia 24.108
rfoot -7.29011 -5.53273
rtoes 21.7096
lfemur 12.592 2.95439 -34.5363
ltibia 9.92211
lfoot -18.3837 0.900596
ltoes -16.4242
960
root 8.50202 16.7664 1.16528 358.5 -3.05441 372.072
lowerback 4.28285 0.239374 -16.3121
upperback 6.93463 0.269421 -3.55947
thorax 5.0498 -0.575975 5.28385
lowerneck -20.1969 2.26577 3.05307
upperneck 23.5452 1.72197 1.64335
head 10.9801 1.26471 0.347797
rclavicle 1.98785e-014 4.37326e-014
rhumerus -37.5775 1.59214 -85.2638
rradius 32.5057
rwrist 1.01601
rhand -6.04863 -31.4026
rfingers 7.12502
rthumb 19.7856 -60.4156
lclavicle 1.98785e-014 4.37326e-014
lhumerus -6.31118 -25.4697 87.2681
lradius 41.8233
lwrist 8.2598
lhand -20.5472 -27.3586
lfingers 7.12502
lthumb 5.81156 2.54169
rfemur -26.1383 -3.22087 4.15241
rtibia 21.3856
rfoot -6.84856 -5.81446
rtoes 22.5924
lfemur 12.9631 2.26293 -35.2535
ltibia 9.88689
lfoot -18.7958 1.19028
ltoes -16.2032
961
root 8.50202 16.74 1.29462 358.665 -2.84267 372.504
lowerback 4.12015 0.159101 -16.7411
upperback 6.90582 0.190143 -3.53156
thorax 5.14474 -0.641943 5.54437
lowerneck -20.2184 2.29723 3.09882
upperneck 23.4122 1.76615 1.59315
head 10.936 1.28126 0.327678
rclavicle 1.45113e-014 1.11319e-014
rhumerus -37.4255 1.62097 -85.3344
rradius 32.7431
rwrist 1.04363
rhand -6.44964 -32.0849
rfingers 7.12502
rthumb 19.4001 -61.1372
lclavicle 1.45113e-014 1.11319e-014
lhumerus -6.53139 -25.3408 87.5124
lradius 42.0307
lwrist 7.93627
lhand -20.6888 -27.6153
lfingers 7.12502
lthumb 5.67478 2.28869
rfemur -26.0981 -2.88877 3.31063
rtibia 18.92
rfoot -6.37328 -5.75186
rtoes 22.4362
lfemur 13.3102 1.73019 -35.9524
ltibia 9.82735
lfoot -19.1748 1.20769
ltoes -15.2407
962
root 8.5056 16.7125 1.43296 358.915 -2.72649 372.721
lowerback 3.7555 0.0691749 -16.8494
upperback 6.85453 0.140717 -3.45828
thorax 5.31246 -0.683245 5.68032
lowerneck -20.1715 2.25409 3.0131
upperneck 23.2873 1.74071 1.582
head 10.8791 1.25929 0.332127
rclavicle 1.8487e-014 3.77691e-014
rhumerus -37.2318 1.50566 -85.2519
rradius 32.7851
rwrist 0.985365
rhand -7.09001 -32.4379
rfingers 7.12502
rthumb 18.7843 -61.551
lclavicle 1.8487e-014 3.77691e-014
lhumerus -6.92038 -25.5343 87.7854
lradius 42.3484
lwrist 7.96712
lhand -21.0229 -27.7446
lfingers 7.12502
lthumb 5.35226 2.1678
rfemur -26.1109 -2.82288 2.80046
rtibia 16.6218
rfoot -6.0958 -5.73258
rtoes 29.5017
lfemur 13.5912 1.80417 -36.1288
ltibia 9.7844
lfoot -19.4594 0.333768
ltoes -12.6438
963
root 8.50446 16.6821 1.56457 359.194 -2.55556 372.917
lowerback 3.52661 -0.033878 -16.8776
upperback 6.76676 0.0437479 -3.46342
thorax 5.36934 -0.731419 5.68906
lowerneck -20.2152 2.27082 3.16791
upperneck 23.2264 1.73486 1.49997
head 10.8678 1.25967 0.275892
rclavicle -2.5842e-015 -6.08281e-014
rhumerus -37.0457 1.24663 -85.2674
rradius 32.8281
rwrist 0.806073
rhand -7.45457 -32.4692
rfingers 7.12502
rthumb 18.4336 -61.6158
lclavicle -2.5842e-015 -6.08281e-014
lhumerus -7.39415 -25.9312 87.8809
lradius 42.752
lwrist 8.28165
lhand -21.0954 -27.9829
lfingers 7.12502
lthumb 5.28221 1.93125
rfemur -26.2669 -2.95131 2.37309
rtibia 14.7035
rfoot -5.83883 -4.26477
rtoes 19.4812
lfemur 13.6657 2.53673 -35.8531
ltibia 10.0216
lfoot -19.5977 -1.18326
ltoes -10.591
964
root 8.49515 16.6528 1.69592 359.352 -2.36098 373.175
lowerback 3.48076 -0.0894871 -17.1724
upperback 6.70262 -0.0294547 -3.41759
thorax 5.35373 -0.778769 5.89714
lowerneck -20.3183 2.25073 3.29406
upperneck 23.207 1.69115 1.38879
head 10.8825 1.23713 0.209213
rclavicle 2.26615e-014 7.7526e-015
rhumerus -36.9602 1.25307 -85.3314
rradius 33.082
rwrist 0.426082
rhand -7.40156 -32.3212
rfingers 7.12502
rthumb 18.4846 -61.463
lclavicle 2.26615e-014 7.7526e-015
lhumerus -7.7905 -25.8138 88.1231
lradius 42.8694
lwrist 8.16053
lhand -20.9253 -28.4182
lfingers 7.12502
lthumb 5.44644 1.49182
rfemur -26.3176 -3.06209 1.94902
rtibia 13.1005
rfoot -6.44121 -3.90685
rtoes 20.1031
lfemur 13.9624 1.66609 -36.4844
ltibia 10.1902
lfoot -20.041 -0.729002
ltoes -10.2867
965
root 8.49869 16.6264 1.84924 359.408 -2.19981 373.526
lowerback 3.23472 -0.12225 -17.4352
upperback 6.71941 -0.017169 -3.38122
thorax 5.52312 -0.80028 6.07568
lowerneck -20.4064 2.18446 3.34006
upperneck 23.1911 1.61781 1.24745
head 10.8942 1.19018 0.140145
rclavicle -1.28216e-014 -3.24019e-014
rhumerus -36.8568 1.14641 -85.2335
rradius 33.2973
rwrist 0.335488
rhand -7.12122 -32.1464
rfingers 7.12502
rthumb 18.7542 -61.2624
lclavicle -1.28216e-014 -3.24019e-014
lhumerus -8.1237 -25.5879 88.5533
lradius 42.7489
lwrist 7.71012
lhand -21.0348 -28.5804
lfingers 7.12502
lthumb 5.34077 1.33228
rfemur -26.1273 -3.83922 1.57789
rtibia 11.7949
rfoot -6.89647 -2.74788
rtoes 19.6278
lfemur 14.5192 1.61956 -36.9932
ltibia 10.2178
lfoot -20.3325 -0.927463
ltoes -10.393
966
root 8.48909 16.5915 1.9754 359.639 -2.04715 373.473
lowerback 3.1465 -0.150227 -17.2939
upperback 6.64767 -0.0458245 -3.31444
thorax 5.4947 -0.803221 6.07231
lowerneck -20.5953 2.18658 3.5554
upperneck 23.3177 1.55945 1.17127
head 10.9803 1.17526 0.0710259
rclavicle 2.26118e-014 4.41302e-014
rhumerus -36.5998 0.513417 -85.1269
rradius 33.3079
rwrist 0.478968
rhand -6.8083 -31.9006
rfingers 7.12502
rthumb 19.0552 -60.9871
lclavicle 2.26118e-014 4.41302e-014
lhumerus -8.91349 -27.6471 88.35
lradius 43.7088
lwrist 9.4892
lhand -21.6913 -28.0796
lfingers 7.12502
lthumb 4.70681 1.84809
rfemur -26.344 -3.84711 1.59662
rtibia 10.9437
rfoot -7.43883 -2.2775
rtoes 19.1064
lfemur 14.5623 1.82908 -36.6681
ltibia 10.6499
lfoot -20.5307 -1.60795
ltoes -9.71122
967
root 8.49661 16.5562 2.11334 359.925 -1.91059 373.49
lowerback 2.85846 -0.199893 -16.9113
upperback 6.60448 -0.0535827 -3.34273
thorax 5.5977 -0.791798 5.83395
lowerneck -20.6463 2.16011 3.61516
upperneck 23.3216 1.47205 1.27261
head 10.9909 1.1543 0.085094
rclavicle -4.67144e-015 -8.15017e-015
rhumerus -36.3834 0.214901 -85.0919
rradius 33.4527
rwrist -0.00829899
rhand -6.62867 -31.5478
rfingers 7.12502
rthumb 19.2279 -60.6173
lclavicle -4.67144e-015 -8.15017e-015
lhumerus -9.14225 -27.1834 88.8351
lradius 43.1492
lwrist 8.99403
lhand -21.5916 -28.6822
lfingers 7.12502
lthumb 4.8031 1.2434
rfemur -26.6199 -4.27685 1.56194
rtibia 10.5161
rfoot -8.00336 -1.53347
rtoes 20.0502
lfemur 14.6561 1.72277 -36.7465
ltibia 10.977
lfoot -20.8269 -1.6262
ltoes -11.8485
968
root 8.48648 16.5275 2.26592 359.967 -1.98756 373.563
lowerback 2.59776 -0.0833035 -16.897
upperback 6.63705 0.157883 -3.26408
thorax 5.73532 -0.701348 5.91421
lowerneck -20.4127 2.05831 3.36349
upperneck 23.0249 1.37153 1.48522
head 10.8308 1.10926 0.183598
rclavicle -8.59744e-015 -1.05356e-014
rhumerus -36.3903 0.62432 -85.1389
rradius 33.8594
rwrist -0.660547
rhand -6.72258 -31.6769
rfingers 7.12502
rthumb 19.1376 -60.7553
lclavicle -8.59744e-015 -1.05356e-014
lhumerus -9.50711 -27.11 89.2713
lradius 42.8361
lwrist 8.31231
lhand -21.4521 -28.974
lfingers 7.12502
lthumb 4.93778 0.948471
rfemur -26.5326 -4.00608 1.40955
rtibia 10.1371
rfoot -8.58782 -1.0974
rtoes 23.5261
lfemur 15.176 1.79705 -36.8591
ltibia 11.0193
lfoot -21.1334 -1.27984
ltoes -15.4873
969
root 8.45711 16.4891 2.39562 359.978 -1.95717 373.801
lowerback 2.70978 0.0369798 -17.3311
upperback 6.57726 0.285579 -3.19105
thorax 5.59027 -0.648867 6.23245
lowerneck -20.4928 1.87295 3.37197
upperneck 23.0707 1.0852 1.55476
head 10.8604 0.989807 0.164965
rclavicle 2.60905e-015 -1.87852e-014
rhumerus -36.3891 1.0178 -85.3677
rradius 34.0928
rwrist -0.587041
rhand -7.10501 -32.1076
rfingers 7.12502
rthumb 18.7698 -61.222
lclavicle 2.60905e-015 -1.87852e-014
lhumerus -10.0558 -27.4569 89.4911
lradius 42.6644
lwrist 7.93052
lhand -21.5389 -29.0873
lfingers 7.12502
lthumb 4.85399 0.837108
rfemur -26.7985 -3.91842 1.35208
rtibia 10.7487
rfoot -9.06801 -1.06741
rtoes 19.8073
lfemur 15.4303 1.808 -36.9541
ltibia 11.4341
lfoot -21.3722 -1.16437
ltoes -17.591
